<?xml version="1.0" encoding="utf-8"?>
<!-- Generator: Adobe Illustrator 16.0.0, SVG Export Plug-In . SVG Version: 6.00 Build 0)  -->
<!DOCTYPE svg PUBLIC "-//W3C//DTD SVG 1.1//EN" "http://www.w3.org/Graphics/SVG/1.1/DTD/svg11.dtd">
<svg version="1.1" id="Capa_1" xmlns="http://www.w3.org/2000/svg" xmlns:xlink="http://www.w3.org/1999/xlink" x="0px" y="0px"
	 width="160.479px" height="106.171px" viewBox="0 0 160.479 106.171" enable-background="new 0 0 160.479 106.171"
	 xml:space="preserve">
<g>
	<path fill="#FFFFFF" d="M7.705,92.158v7.111c0,0.963-0.107,1.704-0.324,2.223c-0.217,0.52-0.635,0.967-1.254,1.342
		s-1.375,0.563-2.267,0.563c-0.903,0-1.646-0.162-2.227-0.487c-0.58-0.322-0.999-0.768-1.253-1.332
		C0.127,101.011,0,100.291,0,99.416v-7.258h2.036v7.111c0,0.973,0.204,1.613,0.611,1.918c0.409,0.307,0.884,0.458,1.423,0.458
		c0.622,0,1.119-0.162,1.493-0.489c0.373-0.328,0.56-0.955,0.56-1.887v-7.111H7.705z"/>
	<path fill="#FFFFFF" d="M15.926,103.227h-1.848V98.11c0-0.541-0.125-0.948-0.374-1.222c-0.248-0.271-0.549-0.409-0.899-0.409
		c-0.481,0-0.903,0.211-1.266,0.633c-0.362,0.423-0.543,1.058-0.543,1.906v4.209H9.147v-8.19h1.687v1.896
		c0.59-1.378,1.417-2.066,2.482-2.066c0.719,0,1.333,0.227,1.845,0.682c0.51,0.453,0.766,1.25,0.766,2.392L15.926,103.227
		L15.926,103.227z"/>
	<path fill="#FFFFFF" d="M19.25,94.08h-1.848v-1.922h1.848V94.08z M19.25,103.226h-1.848v-8.189h1.848V103.226z"/>
	<polygon fill="#FFFFFF" points="26.906,95.037 24.125,103.227 22.592,103.227 19.745,95.037 21.675,95.037 23.59,100.591 
		25.455,95.037 	"/>
	<path fill="#FFFFFF" d="M32.453,100.615l1.67,0.229c-0.216,0.74-0.638,1.353-1.265,1.832c-0.628,0.482-1.415,0.723-2.36,0.723
		c-1.136,0-2.05-0.381-2.742-1.145c-0.691-0.762-1.038-1.795-1.038-3.098c0-1.236,0.35-2.263,1.047-3.074
		c0.696-0.811,1.644-1.215,2.838-1.215c1.168,0,2.07,0.399,2.709,1.199c0.638,0.801,0.957,1.827,0.957,3.081l-0.009,0.211h-5.62
		c0,0.558,0.053,1.003,0.157,1.339c0.105,0.336,0.315,0.627,0.628,0.877c0.314,0.248,0.706,0.372,1.177,0.372
		C31.517,101.946,32.133,101.501,32.453,100.615 M32.339,98.167c-0.005-0.59-0.182-1.07-0.53-1.443
		c-0.35-0.374-0.78-0.561-1.293-0.561c-0.509,0-0.934,0.176-1.273,0.522c-0.341,0.351-0.541,0.843-0.601,1.479h3.697V98.167z"/>
	<path fill="#FFFFFF" d="M37.075,103.227h-1.85v-8.19h1.671v1.953c0.236-0.762,0.564-1.318,0.98-1.671
		c0.416-0.351,0.844-0.526,1.281-0.526c0.06,0,0.14,0.004,0.244,0.008v1.988c-0.941,0-1.564,0.301-1.869,0.898
		c-0.306,0.602-0.458,1.182-0.458,1.744V103.227z"/>
	<path fill="#FFFFFF" d="M39.207,101.345l1.735-0.332c0.265,0.664,0.849,0.998,1.752,0.998c1.146,0,1.719-0.338,1.719-1.016
		c0-0.215-0.089-0.395-0.267-0.535c-0.18-0.141-0.39-0.234-0.633-0.283l-1.492-0.283c-1.655-0.318-2.482-1.127-2.482-2.426
		c0-0.725,0.262-1.338,0.787-1.846c0.524-0.506,1.305-0.758,2.343-0.758c1.73,0,2.788,0.635,3.171,1.905l-1.646,0.333
		c-0.173-0.616-0.665-0.926-1.477-0.926c-0.983,0-1.476,0.31-1.476,0.926c0,0.428,0.397,0.721,1.192,0.884l1.759,0.365
		c1.368,0.28,2.052,1.063,2.052,2.353c0,0.902-0.351,1.578-1.054,2.022c-0.704,0.446-1.539,0.669-2.506,0.669
		c-0.838,0-1.579-0.169-2.223-0.506C39.819,102.552,39.4,102.039,39.207,101.345"/>
	<path fill="#FFFFFF" d="M48.856,94.08h-1.85v-1.922h1.85V94.08z M48.856,103.226h-1.85v-8.189h1.85V103.226z"/>
	<path fill="#FFFFFF" d="M57.08,103.227h-1.727v-1.653c-0.478,1.217-1.282,1.823-2.417,1.823c-1.005,0-1.775-0.418-2.312-1.257
		c-0.536-0.84-0.804-1.878-0.804-3.122c0-1.157,0.278-2.166,0.836-3.024c0.557-0.859,1.349-1.289,2.376-1.289
		c1.054,0,1.787,0.48,2.198,1.441v-3.988h1.849V103.227z M55.23,98.394c0-0.666-0.158-1.184-0.475-1.555
		c-0.316-0.369-0.726-0.555-1.229-0.555c-0.546,0-0.973,0.237-1.283,0.713c-0.307,0.477-0.461,1.188-0.461,2.133
		c0,1.828,0.573,2.742,1.719,2.742c0.454,0,0.855-0.197,1.204-0.588c0.35-0.394,0.523-0.895,0.523-1.504L55.23,98.394L55.23,98.394z
		"/>
	<path fill="#FFFFFF" d="M65.57,103.226h-1.76c-0.156-0.497-0.251-1.049-0.284-1.652c-0.492,1.217-1.417,1.823-2.774,1.823
		c-0.814,0-1.471-0.237-1.966-0.717s-0.742-1.08-0.742-1.806c0-1.881,1.651-2.822,4.956-2.822c0.13,0,0.306,0.004,0.526,0.009
		v-0.616c0-0.85-0.578-1.273-1.736-1.273c-1.125,0-1.762,0.425-1.914,1.273l-1.572-0.234c0.086-0.683,0.438-1.244,1.054-1.684
		s1.509-0.66,2.676-0.66c0.633,0,1.149,0.053,1.549,0.157c0.4,0.104,0.738,0.284,1.015,0.535c0.275,0.251,0.466,0.524,0.57,0.819
		c0.105,0.293,0.158,0.793,0.158,1.494v3.699C65.327,102.108,65.407,102.66,65.57,103.226 M63.526,99.058
		c-2.39,0-3.584,0.57-3.584,1.712c0,0.341,0.12,0.631,0.36,0.872c0.24,0.238,0.604,0.359,1.092,0.359
		c0.703,0,1.233-0.223,1.593-0.67c0.359-0.444,0.539-0.951,0.539-1.52V99.058z"/>
	<path fill="#FFFFFF" d="M73.542,103.227h-1.728v-1.653c-0.477,1.217-1.282,1.823-2.417,1.823c-1.005,0-1.776-0.418-2.313-1.257
		c-0.535-0.84-0.803-1.878-0.803-3.122c0-1.157,0.278-2.166,0.835-3.024c0.557-0.859,1.35-1.289,2.377-1.289
		c1.054,0,1.787,0.48,2.197,1.441v-3.988h1.85L73.542,103.227L73.542,103.227z M71.691,98.394c0-0.666-0.158-1.184-0.475-1.555
		c-0.315-0.369-0.726-0.555-1.229-0.555c-0.546,0-0.973,0.237-1.282,0.713c-0.308,0.477-0.461,1.188-0.461,2.133
		c0,1.828,0.572,2.742,1.718,2.742c0.455,0,0.856-0.197,1.205-0.588c0.35-0.394,0.523-0.895,0.523-1.504V98.394L71.691,98.394z"/>
	<path fill="#FFFFFF" d="M85.178,103.227h-1.729v-1.653c-0.476,1.217-1.281,1.823-2.417,1.823c-1.005,0-1.776-0.418-2.312-1.257
		c-0.535-0.84-0.804-1.878-0.804-3.122c0-1.157,0.278-2.166,0.835-3.024c0.558-0.859,1.351-1.289,2.377-1.289
		c1.055,0,1.787,0.48,2.197,1.441v-3.988h1.852L85.178,103.227L85.178,103.227z M83.327,98.394c0-0.666-0.158-1.184-0.474-1.555
		c-0.316-0.369-0.727-0.555-1.229-0.555c-0.546,0-0.973,0.237-1.282,0.713c-0.308,0.477-0.462,1.188-0.462,2.133
		c0,1.828,0.573,2.742,1.72,2.742c0.454,0,0.854-0.197,1.204-0.588c0.349-0.394,0.521-0.895,0.521-1.504v-1.387H83.327z"/>
	<path fill="#FFFFFF" d="M91.867,100.615l1.671,0.229c-0.216,0.74-0.639,1.353-1.266,1.832c-0.628,0.482-1.414,0.723-2.359,0.723
		c-1.137,0-2.05-0.381-2.742-1.145c-0.691-0.762-1.038-1.795-1.038-3.098c0-1.236,0.35-2.263,1.047-3.074
		c0.696-0.811,1.645-1.215,2.839-1.215c1.168,0,2.07,0.399,2.709,1.199c0.638,0.801,0.957,1.827,0.957,3.081l-0.009,0.211h-5.62
		c0,0.558,0.053,1.003,0.158,1.339c0.104,0.336,0.314,0.627,0.628,0.877c0.314,0.248,0.705,0.372,1.177,0.372
		C90.932,101.946,91.548,101.501,91.867,100.615 M91.753,98.167c-0.005-0.59-0.183-1.07-0.529-1.443
		c-0.351-0.374-0.781-0.561-1.294-0.561c-0.509,0-0.934,0.176-1.273,0.522c-0.341,0.351-0.541,0.843-0.601,1.479h3.697V98.167z"/>
	<path fill="#FFFFFF" d="M106.569,97.566v5.661h-0.885l-0.607-1.492c-0.645,1.108-1.642,1.662-2.993,1.662
		c-1.509,0-2.635-0.573-3.378-1.72c-0.743-1.145-1.115-2.473-1.115-3.98c0-1.596,0.415-2.945,1.245-4.052
		c0.829-1.106,1.991-1.658,3.483-1.658c1.113,0,2.029,0.323,2.75,0.97c0.719,0.646,1.172,1.449,1.361,2.412l-1.735,0.309
		c-0.324-1.352-1.101-2.027-2.327-2.027c-0.784,0-1.424,0.318-1.918,0.957s-0.742,1.619-0.742,2.943
		c0,2.796,0.875,4.193,2.627,4.193c0.683,0,1.245-0.236,1.691-0.705c0.446-0.472,0.669-1.093,0.669-1.865h-2.287v-1.606
		L106.569,97.566L106.569,97.566z"/>
	<path fill="#FFFFFF" d="M114.735,103.227h-1.72v-1.769c-0.466,1.291-1.327,1.938-2.587,1.938c-0.746,0-1.339-0.229-1.776-0.692
		c-0.438-0.463-0.656-1.106-0.656-1.935v-5.733h1.889v5.336c0,0.59,0.132,0.977,0.391,1.16c0.26,0.184,0.514,0.275,0.763,0.275
		c0.399,0,0.809-0.182,1.226-0.54c0.416-0.358,0.624-1.125,0.624-2.3v-3.934h1.85v8.192H114.735z"/>
	<path fill="#FFFFFF" d="M123.234,103.226h-1.761c-0.157-0.497-0.251-1.049-0.284-1.652c-0.491,1.217-1.416,1.823-2.773,1.823
		c-0.814,0-1.472-0.237-1.966-0.717c-0.495-0.479-0.742-1.08-0.742-1.806c0-1.881,1.651-2.822,4.955-2.822
		c0.13,0,0.305,0.004,0.526,0.009v-0.616c0-0.85-0.578-1.273-1.735-1.273c-1.125,0-1.763,0.425-1.914,1.273l-1.573-0.234
		c0.087-0.683,0.438-1.244,1.055-1.684s1.509-0.66,2.677-0.66c0.633,0,1.149,0.053,1.55,0.157c0.399,0.104,0.738,0.284,1.015,0.535
		c0.275,0.251,0.466,0.524,0.57,0.819c0.105,0.293,0.158,0.793,0.158,1.494v3.699C122.99,102.108,123.071,102.66,123.234,103.226
		 M121.189,99.058c-2.391,0-3.584,0.57-3.584,1.712c0,0.341,0.12,0.631,0.359,0.872c0.24,0.238,0.604,0.359,1.093,0.359
		c0.701,0,1.232-0.223,1.593-0.67c0.358-0.444,0.539-0.951,0.539-1.52V99.058z"/>
	<path fill="#FFFFFF" d="M130.305,95.037l-3.188,9.325c-0.195,0.573-0.461,1.019-0.799,1.335s-0.815,0.475-1.432,0.475
		c-0.244,0-0.599-0.02-1.063-0.057v-1.469l0.884,0.018c0.391,0,0.678-0.063,0.863-0.19c0.188-0.127,0.335-0.353,0.442-0.679
		c0.107-0.323,0.161-0.512,0.161-0.566c0-0.032-0.056-0.2-0.17-0.503l-2.813-7.688h1.938l1.988,5.401l1.712-5.401H130.305
		L130.305,95.037z"/>
	<path fill="#FFFFFF" d="M137.57,103.226h-1.76c-0.157-0.497-0.251-1.049-0.284-1.652c-0.492,1.217-1.416,1.823-2.773,1.823
		c-0.815,0-1.472-0.237-1.966-0.717c-0.495-0.479-0.742-1.08-0.742-1.806c0-1.881,1.65-2.822,4.955-2.822
		c0.13,0,0.306,0.004,0.526,0.009v-0.616c0-0.85-0.578-1.273-1.735-1.273c-1.125,0-1.763,0.425-1.914,1.273l-1.572-0.234
		c0.087-0.683,0.438-1.244,1.055-1.684c0.616-0.439,1.508-0.66,2.676-0.66c0.633,0,1.149,0.053,1.549,0.157
		c0.4,0.104,0.739,0.284,1.016,0.535c0.275,0.251,0.466,0.524,0.57,0.819c0.105,0.293,0.158,0.793,0.158,1.494v3.699
		C137.327,102.108,137.408,102.66,137.57,103.226 M135.526,99.058c-2.389,0-3.584,0.57-3.584,1.712c0,0.341,0.12,0.631,0.36,0.872
		c0.24,0.238,0.604,0.359,1.092,0.359c0.702,0,1.232-0.223,1.593-0.67c0.359-0.444,0.539-0.951,0.539-1.52V99.058z"/>
	<path fill="#FFFFFF" d="M145.59,105.994h-1.922v-4.211c-0.438,1.077-1.197,1.614-2.278,1.614c-1.038,0-1.815-0.425-2.331-1.272
		c-0.518-0.85-0.775-1.836-0.775-2.959c0-1.268,0.304-2.299,0.908-3.1c0.605-0.8,1.444-1.199,2.516-1.199
		c1,0,1.799,0.438,2.399,1.313l0.495-1.145h0.988V105.994L145.59,105.994z M143.668,98.417c0-0.535-0.123-1.008-0.369-1.42
		c-0.245-0.41-0.646-0.615-1.203-0.615c-0.601,0-1.061,0.246-1.38,0.742c-0.318,0.494-0.479,1.168-0.479,2.021
		c0,0.877,0.164,1.559,0.49,2.045c0.328,0.486,0.742,0.729,1.245,0.729c0.46,0,0.856-0.207,1.191-0.619
		c0.335-0.414,0.503-0.98,0.503-1.699L143.668,98.417L143.668,98.417z"/>
	<path fill="#FFFFFF" d="M153.813,103.227h-1.721v-1.769c-0.465,1.291-1.326,1.938-2.587,1.938c-0.747,0-1.338-0.229-1.775-0.692
		c-0.438-0.463-0.657-1.106-0.657-1.935v-5.733h1.89v5.336c0,0.59,0.13,0.977,0.392,1.16c0.258,0.184,0.513,0.275,0.762,0.275
		c0.399,0,0.808-0.182,1.224-0.54c0.417-0.358,0.625-1.125,0.625-2.3v-3.934h1.851v8.192H153.813z"/>
	<path fill="#FFFFFF" d="M157.146,94.08h-1.85v-1.922h1.85V94.08z M157.146,103.226h-1.85v-8.189h1.85V103.226z"/>
	<rect x="158.629" y="92.158" fill="#FFFFFF" width="1.85" height="11.068"/>
	<polygon fill="#FFFFFF" points="76.292,12.171 76.908,13.472 78.329,13.707 77.276,14.693 77.495,16.12 76.231,15.423 
		74.942,16.075 75.216,14.656 74.201,13.632 75.628,13.452 	"/>
	<polygon fill="#FFFFFF" points="71.228,11.595 71.831,12.878 73.242,13.109 72.203,14.088 72.426,15.493 71.171,14.809 
		69.893,15.449 70.16,14.051 69.159,13.038 70.57,12.854 	"/>
	<polygon fill="#FFFFFF" points="66.187,9.899 66.788,11.185 68.199,11.416 67.163,12.394 67.38,13.802 66.126,13.118 
		64.854,13.753 65.113,12.359 64.116,11.343 65.527,11.16 	"/>
	<polygon fill="#FFFFFF" points="62.448,6.902 63.079,8.188 64.487,8.381 63.467,9.381 63.71,10.787 62.448,10.123 61.183,10.787 
		61.419,9.381 60.406,8.381 61.814,8.188 	"/>
	<polygon fill="#FFFFFF" points="96.498,9.899 97.133,11.186 98.54,11.378 97.524,12.38 97.765,13.785 96.498,13.12 95.232,13.785 
		95.476,12.38 94.458,11.378 95.871,11.186 	"/>
	<polygon fill="#FFFFFF" points="91.483,11.595 92.096,12.881 93.498,13.115 92.464,14.094 92.682,15.5 91.427,14.818 
		90.155,15.453 90.419,14.056 89.419,13.042 90.835,12.859 	"/>
	<polygon fill="#FFFFFF" points="86.444,12.171 87.05,13.448 88.459,13.685 87.42,14.664 87.634,16.067 86.387,15.386 
		85.114,16.022 85.379,14.624 84.375,13.611 85.791,13.429 	"/>
	<polygon fill="#FFFFFF" points="81.379,12.758 81.995,14.062 83.415,14.294 82.368,15.282 82.583,16.707 81.324,16.012 
		80.034,16.662 80.302,15.245 79.289,14.221 80.721,14.038 	"/>
	<polygon fill="#FFFFFF" points="81.091,0 81.712,1.31 83.146,1.553 82.082,2.547 82.302,3.982 81.033,3.286 79.729,3.936 
		80.001,2.51 78.978,1.476 80.424,1.287 	"/>
	<polygon fill="#FFFFFF" points="85.237,0.481 85.853,1.782 87.274,2.017 86.222,3.003 86.44,4.429 85.177,3.733 83.888,4.385 
		84.161,2.966 83.146,1.942 84.573,1.761 	"/>
	<polygon fill="#FFFFFF" points="68.368,1.991 68.979,3.278 70.382,3.511 69.348,4.491 69.566,5.897 68.311,5.215 67.04,5.85 
		67.303,4.452 66.303,3.439 67.719,3.256 	"/>
	<polygon fill="#FFFFFF" points="64.512,3.944 65.124,5.231 66.527,5.464 65.493,6.444 65.711,7.85 64.456,7.167 63.184,7.803 
		63.448,6.405 62.448,5.392 63.863,5.209 	"/>
	<polygon fill="#FFFFFF" points="72.452,0.976 73.057,2.253 74.467,2.49 73.427,3.468 73.642,4.871 72.395,4.19 71.122,4.826 
		71.387,3.428 70.382,2.416 71.799,2.233 	"/>
	<polygon fill="#FFFFFF" points="76.793,0.48 77.41,1.784 78.83,2.017 77.783,3.005 77.998,4.43 76.738,3.734 75.448,4.384 
		75.717,2.968 74.703,1.944 76.135,1.761 	"/>
	<polygon fill="#FFFFFF" points="99.748,6.902 100.377,8.177 101.785,8.384 100.768,9.383 101.009,10.787 99.748,10.125 
		98.481,10.787 98.721,9.383 97.698,8.384 99.114,8.177 	"/>
	<polygon fill="#FFFFFF" points="89.565,0.98 90.194,2.256 91.603,2.462 90.585,3.461 90.826,4.866 89.565,4.204 88.3,4.866 
		88.538,3.461 87.517,2.462 88.932,2.256 	"/>
	<polygon fill="#FFFFFF" points="93.648,2.001 94.277,3.277 95.686,3.483 94.668,4.482 94.909,5.887 93.648,5.225 92.383,5.887 
		92.621,4.482 91.6,3.483 93.015,3.277 	"/>
	<polygon fill="#FFFFFF" points="97.705,3.944 98.334,5.219 99.742,5.426 98.725,6.425 98.966,7.829 97.705,7.167 96.439,7.829 
		96.678,6.425 95.656,5.426 97.071,5.219 	"/>
	<path fill="#213B79" d="M111.626,34.081c0,0-4.617-3.5-5.889-7.332l-10.052,1.478c0.018-1.074-0.155-2.511-0.614-3.832l6.233-1.57
		l-20.221-5.602L60.67,22.177l6.345,1.813c0,0-0.441,1.17-0.711,2.851l-8.313-1.939c-1.784,4.297-6.69,7.476-6.69,7.476
		L44.247,75.88l31.054,2.875c0,0,1.298,2.838,4.379,2.838c3.08,0,4.792-2.756,4.792-2.756l31.368-3.567L111.626,34.081z"/>
	<path fill="#FFFFFF" d="M66.158,28.208l-7.955-2.062c-1.745,4.202-5.789,6.501-5.789,6.501L45.517,74.71l29.891,2.812
		c0,0,1.269,2.774,4.281,2.774s4.686-2.695,4.686-2.695l30.199-3.488l-4.123-39.801c0,0-3.831-2.755-5.074-6.501l-9.689,1.506
		c0,0-0.016,2.562-0.618,3.227c-0.605,0.665-4.466,3.937-13.715,3.937s-13.945-3.528-13.945-3.528S65.954,32.031,66.158,28.208"/>
	<path fill="#213B79" d="M104.706,27.569l3.698,41.972c0,0-10.036-1.508-27.493,3.662l0.781-37.196l-1.318-0.035l-0.701,37.184
		c-11.899-4.537-27.828-3.148-27.828-3.148l7.11-44.184l-0.702-0.288l-0.429,0.377c0,0-7.043,43.238-7.248,44.259
		s0.94,0.94,0.94,0.94c16.677-1.554,27.182,2.983,27.672,3.146c0.491,0.164,1.186,0.287,1.186,0.287
		c14.797-5.396,27.183-4.129,28.162-3.883c0.981,0.244,1.002-0.768,1.002-0.768l-3.851-42.1l-0.286-0.494L104.706,27.569z"/>
	<polygon fill="#FFFFFF" points="81.149,17.889 63.011,22.214 81.157,26.608 99.104,22.761 	"/>
	<path fill="#FFFFFF" d="M94.216,24.698c0,0,1.298,4.426,0.135,7.462c0,0-4.598,3.575-13.108,3.575s-13.419-3.433-13.419-3.433
		s-2.043-3.064,0.17-8.086l13.022,3.461L94.216,24.698z"/>
	<path fill="#213B79" d="M80.718,22.841c0.336-0.155,1.032-0.645,0.635-1.212c-0.398-0.567-1.308-0.232-1.308-0.232l-7.358,4.179
		l-0.262,2.646c0,0-3.147,0.051-3.046,2.85c0.103,2.798,0.985,1.476-0.22,3.867s-1.746,4.275,0,4.071
		c1.746-0.203,2.204-0.254,2.509-0.712c0.307-0.458,0.865-0.204,1.17,0.051c0.307,0.254,1.375-0.102,1.629,0.051
		c0.255,0.152,1.323-0.102,1.425-1.12s-0.458-1.781-0.204-3.104c0.255-1.323,1.526-2.239,1.374-3.206
		c-0.153-0.967-0.764-2.494-3.155-2.85l0.051-1.628C73.958,26.491,80.383,22.996,80.718,22.841"/>
	<path fill="#FFFFFF" d="M71.887,29c-1.017,0.265-1.853,0.882-1.799,1.995c0.024,0.49,0.292,0.923,0.348,1.407
		c0.089,0.79-0.293,1.472-0.559,2.187c-0.124,0.333-0.237,0.675-0.304,1.025c-0.035,0.185-0.06,0.373-0.062,0.562
		c-0.001,0.133,0.076,0.365,0.044,0.482c0.143-0.508,0.391-1.376,0.876-1.658c0.061,0.205-0.11,1.892-0.187,1.858l0.692,0.317
		c0,0,0.229,0.577,0.115,0.807c0,0,0.604-0.144,0.604-0.749s0.289-1.124,0.75-1.124s0.577,0.663,0.52,0.98
		c-0.059,0.317,0.058,0.547,0.201,0.547c0.146,0,0.288-1.181,0.288-1.181s0.49,1.124,0.722,1.239c0,0,0.375,0.173,0.316-0.721
		c-0.026-0.422-0.083-0.911,0.014-1.329c0.141,0.218,0.259,1.094,0.505,1.182c0.276,0.098,0.243-0.482,0.227-0.64
		c-0.07-0.659-0.405-1.217-0.342-1.902c0.063-0.674,0.429-1.25,0.836-1.77c0.367-0.468,0.864-1.044,0.604-1.681
		c-0.357-0.882-0.752-1.434-1.679-1.771C73.933,28.812,72.832,28.753,71.887,29"/>
	<path fill="#FFFFFF" d="M123.761,55.014c0.66,0,1.305-1.632,0.146-2.416c-19.971-9.766-76.764-4.676-84.502-2.275
		c2.756,1.158,3.79,1.64,5.824,2.608c5.15-3.424,11.385-4.969,18.812,1.927h4.387l-2.596-2.78l4.707,2.78h3.903
		c-0.307-1.291-1.192-1.994-1.493-3.285c1.156,1.326,2.61,1.953,3.765,3.285h7.208l-0.918-3.078l2.847,3.078h1.929l-0.596-3.537
		c0,0,2.615,3.537,3.145,3.537h3.209c-0.397-0.794-0.659-2.855-1.063-3.655c0.805,0.855,1.891,2.835,2.692,3.679h5.034l-0.918-2.964
		c0,0,4.04,2.457,4.04,2.964h8.819c-0.155-0.932-0.552-1.685-0.702-2.608c0.584,0.942,1.398,1.615,1.995,2.532
		c0.02,0.031,0.04,0.063,0.06,0.095h3.374l-0.184-1.742c0,0,0.85,1.492,1.858,1.698C119.555,55.063,121.218,55.014,123.761,55.014"
		/>
	<path fill="#213B79" d="M121.581,55.494c-1.448,0-2.425-0.027-3.13-0.173c-0.419-0.085-0.802-0.329-1.125-0.616l0.016,0.146
		c0.015,0.134-0.028,0.268-0.118,0.365c-0.092,0.102-0.22,0.158-0.354,0.158h-3.373c-0.165,0-0.316-0.084-0.404-0.226l-0.055-0.087
		c-0.156-0.241-0.329-0.464-0.514-0.686c0.033,0.138,0.063,0.278,0.088,0.426c0.021,0.138-0.016,0.277-0.106,0.385
		c-0.09,0.105-0.223,0.168-0.361,0.168h-8.818c-0.222,0-0.408-0.152-0.46-0.357c-0.223-0.306-1.44-1.164-2.75-2.002l0.54,1.745
		c0.045,0.145,0.019,0.301-0.07,0.422c-0.09,0.123-0.23,0.193-0.382,0.193h-5.034c-0.13,0-0.254-0.055-0.344-0.146
		c-0.367-0.387-0.779-0.979-1.188-1.588c0.104,0.422,0.213,0.797,0.325,1.023c0.074,0.146,0.065,0.322-0.021,0.462
		c-0.087,0.142-0.239,0.226-0.404,0.226h-3.209c-0.191,0-0.602,0-2.356-2.203l0.276,1.649c0.023,0.138-0.016,0.279-0.104,0.386
		c-0.089,0.107-0.224,0.168-0.362,0.168h-1.929c-0.133,0-0.26-0.055-0.35-0.151l-1.459-1.578l0.334,1.121
		c0.043,0.144,0.016,0.299-0.073,0.418c-0.091,0.12-0.23,0.19-0.382,0.19h-7.208c-0.138,0-0.268-0.06-0.357-0.164
		c-0.547-0.629-1.163-1.092-1.816-1.58c-0.048-0.038-0.097-0.073-0.146-0.109c0.206,0.375,0.393,0.781,0.509,1.27
		c0.033,0.143,0,0.291-0.089,0.405c-0.09,0.113-0.229,0.181-0.373,0.181H70.54c-0.085,0-0.168-0.022-0.241-0.066l-1.873-1.105
		l0.35,0.373c0.128,0.139,0.164,0.34,0.088,0.514s-0.247,0.285-0.437,0.285h-4.385c-0.12,0-0.234-0.045-0.323-0.127
		c-3.411-3.167-6.719-4.708-10.11-4.708c-2.598,0-5.252,0.925-8.115,2.829c-0.14,0.092-0.316,0.104-0.467,0.033
		c-1.952-0.928-3.014-1.427-5.804-2.599c-0.185-0.077-0.301-0.261-0.291-0.46c0.01-0.2,0.144-0.371,0.333-0.43
		c4.496-1.395,24.151-3.504,43.532-3.504c13.434,0,31.505,1.007,41.319,5.807c0.02,0.01,0.038,0.021,0.057,0.033
		c0.874,0.591,0.954,1.555,0.757,2.202c-0.198,0.646-0.667,1.082-1.169,1.082L121.581,55.494z M116.687,52.683
		c0.166,0,0.325,0.088,0.412,0.239c0.192,0.339,0.894,1.337,1.542,1.469c0.628,0.128,1.553,0.153,2.939,0.153l2.182-0.006
		c0.052-0.018,0.241-0.222,0.298-0.572c0.035-0.229,0.03-0.654-0.394-0.958c-9.658-4.706-27.551-5.694-40.869-5.694
		c-17.757,0-35.701,1.765-41.91,3.12c1.807,0.773,2.813,1.243,4.306,1.953c2.939-1.911,5.695-2.84,8.416-2.84
		c3.597,0,7.071,1.582,10.62,4.834h3.106l-1.85-1.98c-0.161-0.172-0.171-0.437-0.023-0.621c0.148-0.184,0.409-0.232,0.611-0.112
		l4.595,2.713h3.116c-0.139-0.32-0.313-0.614-0.496-0.919c-0.312-0.523-0.633-1.063-0.801-1.783
		c-0.049-0.212,0.052-0.431,0.246-0.53c0.194-0.1,0.431-0.054,0.574,0.11c0.542,0.623,1.154,1.081,1.802,1.566
		c0.612,0.459,1.243,0.931,1.817,1.556h6.358l-0.735-2.468c-0.063-0.211,0.027-0.438,0.221-0.548c0.19-0.108,0.434-0.072,0.583,0.09
		l2.706,2.926h1.159l-0.504-2.984c-0.035-0.216,0.081-0.43,0.283-0.516c0.201-0.085,0.438-0.022,0.566,0.154
		c1.065,1.441,2.427,3.094,2.835,3.344h2.456c-0.107-0.366-0.206-0.793-0.309-1.232c-0.157-0.68-0.32-1.382-0.498-1.734
		c-0.105-0.21-0.041-0.467,0.151-0.603c0.192-0.134,0.457-0.108,0.618,0.064c0.427,0.454,0.915,1.185,1.387,1.892
		c0.404,0.604,0.821,1.229,1.172,1.639h4.18l-0.729-2.35c-0.059-0.189,0.006-0.394,0.161-0.515s0.37-0.134,0.539-0.031
		c2.704,1.644,3.695,2.457,4.059,2.896h7.963c-0.063-0.229-0.136-0.453-0.212-0.684c-0.14-0.43-0.284-0.875-0.366-1.375
		c-0.037-0.224,0.09-0.441,0.301-0.521c0.213-0.08,0.452,0.002,0.569,0.194c0.282,0.454,0.624,0.844,0.985,1.256
		c0.314,0.356,0.638,0.728,0.924,1.147h2.59l-0.129-1.22c-0.022-0.223,0.113-0.432,0.327-0.5
		C116.589,52.69,116.638,52.683,116.687,52.683"/>
</g>
</svg>
