<?xml version="1.0" encoding="utf-8"?>
<!-- Generator: Adobe Illustrator 17.0.0, SVG Export Plug-In . SVG Version: 6.00 Build 0)  -->
<!DOCTYPE svg PUBLIC "-//W3C//DTD SVG 1.1//EN" "http://www.w3.org/Graphics/SVG/1.1/DTD/svg11.dtd">
<svg version="1.1" id="Capa_1" xmlns="http://www.w3.org/2000/svg" xmlns:xlink="http://www.w3.org/1999/xlink" x="0px" y="0px"
	 width="361.625px" height="106.174px" viewBox="0 0 361.625 106.174" enable-background="new 0 0 361.625 106.174"
	 xml:space="preserve">
<g>
	<path fill="#FFFFFF" d="M8.75,91.595v7.008c0,0.949-0.105,1.68-0.319,2.19c-0.214,0.512-0.625,0.954-1.236,1.322
		c-0.61,0.37-1.355,0.555-2.234,0.555c-0.89,0-1.622-0.16-2.195-0.48c-0.572-0.318-0.985-0.757-1.235-1.313
		c-0.25-0.558-0.375-1.268-0.375-2.13v-7.154h2.007v7.008c0,0.959,0.201,1.589,0.602,1.89c0.403,0.303,0.872,0.452,1.402,0.452
		c0.613,0,1.103-0.16,1.471-0.482c0.368-0.324,0.551-0.941,0.551-1.86v-7.008H8.75V91.595z"/>
	<path fill="#FFFFFF" d="M16.851,102.505H15.03v-5.043c0-0.533-0.124-0.934-0.369-1.204c-0.244-0.267-0.541-0.403-0.887-0.403
		c-0.474,0-0.89,0.208-1.247,0.624c-0.357,0.417-0.535,1.043-0.535,1.878v4.149h-1.823v-8.072h1.662v1.869
		c0.581-1.358,1.396-2.037,2.446-2.037c0.709,0,1.314,0.224,1.818,0.673c0.503,0.446,0.755,1.232,0.755,2.358L16.851,102.505
		L16.851,102.505z"/>
	<path fill="#FFFFFF" d="M20.128,93.49h-1.822v-1.895h1.822V93.49z M20.128,102.503h-1.822v-8.071h1.822V102.503z"/>
	<polygon fill="#FFFFFF" points="27.674,94.433 24.932,102.505 23.421,102.505 20.616,94.433 22.518,94.433 24.405,99.907 
		26.244,94.433 	"/>
	<path fill="#FFFFFF" d="M33.14,99.93l1.646,0.225c-0.213,0.729-0.629,1.334-1.247,1.806c-0.618,0.475-1.395,0.712-2.326,0.712
		c-1.12,0-2.021-0.376-2.703-1.128c-0.681-0.751-1.023-1.77-1.023-3.054c0-1.218,0.344-2.231,1.032-3.03
		c0.685-0.8,1.621-1.198,2.797-1.198c1.151,0,2.04,0.393,2.67,1.181c0.629,0.789,0.943,1.801,0.943,3.037l-0.009,0.208h-5.539
		c0,0.55,0.052,0.988,0.155,1.32c0.104,0.331,0.311,0.618,0.618,0.865c0.31,0.244,0.696,0.366,1.161,0.366
		C32.218,101.242,32.826,100.803,33.14,99.93 M33.028,97.518c-0.005-0.581-0.179-1.054-0.522-1.422
		c-0.344-0.369-0.769-0.553-1.274-0.553c-0.502,0-0.92,0.173-1.254,0.514c-0.336,0.346-0.533,0.831-0.592,1.458h3.643v0.002H33.028z
		"/>
	<path fill="#FFFFFF" d="M37.697,102.505h-1.823v-8.072h1.647v1.925c0.232-0.751,0.556-1.299,0.966-1.647
		c0.41-0.346,0.832-0.519,1.262-0.519c0.059,0,0.138,0.003,0.24,0.008v1.959c-0.927,0-1.542,0.297-1.843,0.885
		c-0.302,0.593-0.452,1.165-0.452,1.719L37.697,102.505L37.697,102.505z"/>
	<path fill="#FFFFFF" d="M39.797,100.649l1.71-0.327c0.261,0.654,0.837,0.984,1.727,0.984c1.129,0,1.695-0.333,1.695-1.001
		c0-0.212-0.088-0.39-0.264-0.527c-0.177-0.139-0.385-0.231-0.624-0.279l-1.47-0.279c-1.631-0.313-2.446-1.111-2.446-2.392
		c0-0.714,0.258-1.319,0.776-1.819c0.517-0.498,1.287-0.747,2.31-0.747c1.705,0,2.748,0.625,3.126,1.877l-1.622,0.328
		c-0.171-0.607-0.655-0.913-1.455-0.913c-0.969,0-1.455,0.305-1.455,0.913c0,0.422,0.392,0.711,1.174,0.872l1.734,0.359
		c1.348,0.276,2.023,1.047,2.023,2.319c0,0.889-0.346,1.556-1.039,1.993c-0.694,0.439-1.517,0.659-2.47,0.659
		c-0.826,0-1.556-0.166-2.19-0.498C40.401,101.84,39.988,101.334,39.797,100.649"/>
	<path fill="#FFFFFF" d="M49.308,93.49h-1.823v-1.895h1.823V93.49z M49.308,102.503h-1.823v-8.071h1.823V102.503z"/>
	<path fill="#FFFFFF" d="M57.413,102.505h-1.701v-1.629c-0.472,1.2-1.263,1.796-2.382,1.796c-0.991,0-1.749-0.412-2.278-1.239
		c-0.528-0.828-0.793-1.851-0.793-3.077c0-1.141,0.274-2.135,0.824-2.98c0.549-0.846,1.329-1.27,2.342-1.27
		c1.039,0,1.762,0.473,2.166,1.421v-3.93h1.823V102.505L57.413,102.505z M55.59,97.741c0-0.657-0.156-1.167-0.468-1.533
		c-0.311-0.364-0.716-0.547-1.211-0.547c-0.539,0-0.959,0.233-1.265,0.703c-0.303,0.47-0.454,1.171-0.454,2.103
		c0,1.802,0.565,2.703,1.695,2.703c0.447,0,0.843-0.194,1.187-0.579c0.344-0.388,0.516-0.882,0.516-1.482L55.59,97.741L55.59,97.741
		z"/>
	<path fill="#FFFFFF" d="M65.781,102.503h-1.735c-0.154-0.49-0.247-1.033-0.28-1.629c-0.485,1.2-1.396,1.796-2.734,1.796
		c-0.802,0-1.45-0.233-1.937-0.706c-0.488-0.473-0.732-1.065-0.732-1.78c0-1.854,1.628-2.781,4.885-2.781
		c0.128,0,0.302,0.003,0.519,0.009v-0.607c0-0.838-0.57-1.254-1.711-1.254c-1.109,0-1.736,0.418-1.886,1.254l-1.549-0.231
		c0.084-0.673,0.431-1.226,1.039-1.66c0.607-0.433,1.488-0.651,2.638-0.651c0.624,0,1.133,0.052,1.527,0.155
		c0.394,0.103,0.727,0.28,1,0.527c0.27,0.247,0.459,0.517,0.562,0.807c0.104,0.289,0.156,0.781,0.156,1.473v3.646
		C65.542,101.402,65.62,101.946,65.781,102.503 M63.766,98.395c-2.356,0-3.532,0.562-3.532,1.688c0,0.336,0.118,0.622,0.355,0.86
		c0.237,0.235,0.595,0.354,1.076,0.354c0.692,0,1.215-0.22,1.57-0.66c0.354-0.438,0.532-0.937,0.532-1.498V98.395z"/>
	<path fill="#FFFFFF" d="M73.639,102.505h-1.703v-1.629c-0.47,1.2-1.263,1.796-2.382,1.796c-0.991,0-1.75-0.412-2.279-1.239
		c-0.527-0.828-0.792-1.851-0.792-3.077c0-1.141,0.274-2.135,0.823-2.98c0.549-0.846,1.33-1.27,2.343-1.27
		c1.039,0,1.762,0.473,2.165,1.421v-3.93h1.823L73.639,102.505L73.639,102.505z M71.813,97.741c0-0.657-0.156-1.167-0.468-1.533
		c-0.311-0.364-0.716-0.547-1.211-0.547c-0.539,0-0.959,0.233-1.263,0.703c-0.304,0.47-0.454,1.171-0.454,2.103
		c0,1.802,0.564,2.703,1.693,2.703c0.448,0,0.844-0.194,1.187-0.579c0.344-0.388,0.516-0.882,0.516-1.482L71.813,97.741
		L71.813,97.741z"/>
	<path fill="#FFFFFF" d="M85.106,102.505h-1.704v-1.629c-0.469,1.2-1.262,1.796-2.382,1.796c-0.991,0-1.75-0.412-2.278-1.239
		c-0.527-0.828-0.793-1.851-0.793-3.077c0-1.141,0.274-2.135,0.823-2.98c0.55-0.846,1.332-1.27,2.343-1.27
		c1.04,0,1.762,0.473,2.165,1.421v-3.93h1.825L85.106,102.505L85.106,102.505z M83.282,97.741c0-0.657-0.156-1.167-0.467-1.533
		c-0.311-0.364-0.717-0.547-1.211-0.547c-0.539,0-0.959,0.233-1.263,0.703c-0.304,0.47-0.455,1.171-0.455,2.103
		c0,1.802,0.565,2.703,1.696,2.703c0.447,0,0.841-0.194,1.187-0.579c0.344-0.388,0.513-0.882,0.513-1.482v-1.367L83.282,97.741
		L83.282,97.741z"/>
	<path fill="#FFFFFF" d="M91.7,99.93l1.647,0.225c-0.213,0.729-0.63,1.334-1.247,1.806c-0.618,0.475-1.394,0.712-2.325,0.712
		c-1.12,0-2.021-0.376-2.703-1.128c-0.681-0.751-1.023-1.77-1.023-3.054c0-1.218,0.344-2.231,1.032-3.03
		c0.685-0.8,1.622-1.198,2.798-1.198c1.151,0,2.04,0.393,2.67,1.181c0.629,0.789,0.943,1.801,0.943,3.037l-0.009,0.208h-5.539
		c0,0.55,0.052,0.988,0.156,1.32c0.103,0.331,0.31,0.618,0.618,0.865c0.31,0.244,0.695,0.366,1.161,0.366
		C90.778,101.242,91.385,100.803,91.7,99.93 M91.588,97.518c-0.005-0.581-0.18-1.054-0.521-1.422
		c-0.346-0.369-0.77-0.553-1.275-0.553c-0.502,0-0.92,0.173-1.254,0.514c-0.336,0.346-0.533,0.831-0.592,1.458h3.643v0.002H91.588z"
		/>
	<path fill="#FFFFFF" d="M106.19,96.925v5.58h-0.873l-0.599-1.47c-0.636,1.092-1.618,1.638-2.95,1.638
		c-1.488,0-2.597-0.565-3.329-1.696c-0.733-1.128-1.099-2.438-1.099-3.923c0-1.573,0.409-2.902,1.228-3.994
		c0.817-1.09,1.963-1.634,3.433-1.634c1.097,0,2,0.318,2.711,0.956c0.709,0.637,1.155,1.429,1.341,2.378l-1.71,0.304
		c-0.319-1.333-1.085-1.997-2.293-1.997c-0.772,0-1.403,0.313-1.89,0.943s-0.732,1.595-0.732,2.9c0,2.756,0.862,4.132,2.589,4.132
		c0.673,0,1.228-0.232,1.667-0.695c0.439-0.465,0.659-1.077,0.659-1.838h-2.254v-1.582L106.19,96.925L106.19,96.925z"/>
	<path fill="#FFFFFF" d="M114.239,102.505h-1.696v-1.743c-0.459,1.273-1.307,1.91-2.55,1.91c-0.735,0-1.32-0.225-1.75-0.682
		c-0.431-0.457-0.646-1.09-0.646-1.907v-5.65h1.862v5.259c0,0.581,0.131,0.963,0.385,1.143c0.257,0.181,0.506,0.27,0.752,0.27
		c0.393,0,0.798-0.179,1.208-0.532c0.41-0.353,0.615-1.109,0.615-2.267v-3.877h1.823v8.074h-0.003V102.505z"/>
	<path fill="#FFFFFF" d="M122.616,102.503h-1.736c-0.155-0.49-0.247-1.033-0.28-1.629c-0.484,1.2-1.395,1.796-2.733,1.796
		c-0.802,0-1.451-0.233-1.937-0.706c-0.488-0.472-0.732-1.065-0.732-1.78c0-1.854,1.628-2.781,4.884-2.781
		c0.128,0,0.301,0.003,0.519,0.009v-0.607c0-0.838-0.57-1.254-1.71-1.254c-1.109,0-1.737,0.418-1.886,1.254l-1.55-0.231
		c0.086-0.673,0.431-1.226,1.04-1.66c0.608-0.433,1.488-0.651,2.639-0.651c0.624,0,1.133,0.052,1.528,0.155
		c0.393,0.103,0.727,0.28,1,0.527c0.27,0.247,0.459,0.517,0.562,0.807c0.104,0.289,0.156,0.781,0.156,1.473v3.646
		C122.374,101.402,122.455,101.946,122.616,102.503 M120.6,98.395c-2.357,0-3.532,0.562-3.532,1.688c0,0.336,0.118,0.622,0.354,0.86
		c0.237,0.235,0.595,0.354,1.077,0.354c0.691,0,1.214-0.22,1.57-0.66c0.353-0.438,0.532-0.937,0.532-1.498
		C120.6,99.137,120.6,98.395,120.6,98.395z"/>
	<path fill="#FFFFFF" d="M129.585,94.433l-3.142,9.191c-0.192,0.565-0.454,1.004-0.787,1.315s-0.803,0.468-1.411,0.468
		c-0.24,0-0.591-0.02-1.047-0.057v-1.448l0.872,0.017c0.385,0,0.668-0.062,0.851-0.187c0.185-0.125,0.331-0.348,0.436-0.669
		c0.105-0.318,0.158-0.505,0.158-0.558c0-0.031-0.055-0.198-0.168-0.496l-2.773-7.577h1.91l1.959,5.323l1.688-5.323L129.585,94.433
		L129.585,94.433z"/>
	<path fill="#FFFFFF" d="M136.744,102.503h-1.735c-0.155-0.49-0.247-1.033-0.28-1.629c-0.485,1.2-1.395,1.796-2.733,1.796
		c-0.803,0-1.451-0.233-1.937-0.706c-0.488-0.472-0.732-1.065-0.732-1.78c0-1.854,1.626-2.781,4.884-2.781
		c0.128,0,0.302,0.003,0.519,0.009v-0.607c0-0.838-0.57-1.254-1.71-1.254c-1.109,0-1.737,0.418-1.886,1.254l-1.549-0.231
		c0.086-0.673,0.431-1.226,1.04-1.66c0.607-0.432,1.486-0.651,2.638-0.651c0.624,0,1.133,0.052,1.527,0.155
		c0.394,0.103,0.728,0.28,1.001,0.527c0.27,0.247,0.459,0.517,0.562,0.807c0.104,0.289,0.156,0.781,0.156,1.473v3.646
		C136.505,101.402,136.585,101.946,136.744,102.503 M134.731,98.395c-2.355,0-3.532,0.562-3.532,1.688
		c0,0.336,0.118,0.622,0.355,0.86c0.237,0.235,0.595,0.354,1.076,0.354c0.692,0,1.214-0.22,1.57-0.66
		c0.354-0.438,0.532-0.937,0.532-1.498V98.395z"/>
	<path fill="#FFFFFF" d="M144.649,105.231h-1.895v-4.151c-0.431,1.061-1.18,1.591-2.245,1.591c-1.023,0-1.789-0.418-2.298-1.254
		c-0.511-0.838-0.764-1.809-0.764-2.916c0-1.25,0.299-2.266,0.895-3.055c0.596-0.788,1.423-1.181,2.479-1.181
		c0.986,0,1.773,0.431,2.365,1.295l0.488-1.128h0.973L144.649,105.231L144.649,105.231z M142.755,97.764
		c0-0.527-0.121-0.993-0.364-1.4c-0.242-0.405-0.637-0.606-1.186-0.606c-0.592,0-1.046,0.243-1.361,0.732
		c-0.313,0.487-0.472,1.151-0.472,1.992c0,0.865,0.162,1.536,0.483,2.016c0.324,0.479,0.732,0.719,1.228,0.719
		c0.453,0,0.844-0.205,1.174-0.61c0.331-0.408,0.496-0.966,0.496-1.675L142.755,97.764L142.755,97.764z"/>
	<path fill="#FFFFFF" d="M152.754,102.505h-1.696v-1.743c-0.458,1.273-1.307,1.91-2.55,1.91c-0.736,0-1.319-0.225-1.749-0.682
		c-0.431-0.457-0.647-1.09-0.647-1.907v-5.65h1.863v5.259c0,0.581,0.128,0.963,0.386,1.143c0.254,0.181,0.505,0.27,0.751,0.27
		c0.393,0,0.796-0.179,1.207-0.532c0.411-0.353,0.616-1.109,0.616-2.267v-3.877h1.824v8.074h-0.003v0.001H152.754z"/>
	<path fill="#FFFFFF" d="M156.039,93.49h-1.823v-1.895h1.823V93.49z M156.039,102.503h-1.823v-8.071h1.823V102.503z"/>
	<rect x="157.501" y="91.595" fill="#FFFFFF" width="1.823" height="10.908"/>
	<polygon fill="#FFFFFF" points="76.349,12.76 76.956,14.042 78.356,14.273 77.319,15.245 77.534,16.652 76.289,15.964 
		75.018,16.607 75.288,15.208 74.288,14.199 75.694,14.022 	"/>
	<polygon fill="#FFFFFF" points="71.358,12.191 71.952,13.456 73.343,13.684 72.319,14.649 72.538,16.034 71.301,15.36 
		70.041,15.991 70.305,14.613 69.319,13.614 70.71,13.433 	"/>
	<polygon fill="#FFFFFF" points="66.389,10.52 66.982,11.788 68.372,12.016 67.352,12.98 67.566,14.367 66.329,13.693 
		65.076,14.319 65.331,12.945 64.349,11.944 65.739,11.764 	"/>
	<polygon fill="#FFFFFF" points="62.704,7.566 63.326,8.833 64.714,9.024 63.708,10.01 63.948,11.396 62.704,10.741 61.458,11.396 
		61.69,10.01 60.691,9.024 62.08,8.833 	"/>
	<polygon fill="#FFFFFF" points="96.264,10.52 96.89,11.789 98.277,11.977 97.275,12.966 97.513,14.351 96.264,13.695 
		95.016,14.351 95.256,12.966 94.253,11.977 95.646,11.789 	"/>
	<polygon fill="#FFFFFF" points="91.321,12.191 91.925,13.459 93.308,13.69 92.288,14.655 92.503,16.04 91.266,15.369 
		90.012,15.994 90.272,14.618 89.287,13.618 90.682,13.437 	"/>
	<polygon fill="#FFFFFF" points="86.355,12.76 86.952,14.018 88.341,14.252 87.316,15.216 87.528,16.6 86.298,15.928 85.044,16.555 
		85.305,15.177 84.316,14.178 85.711,13.999 	"/>
	<polygon fill="#FFFFFF" points="81.362,13.338 81.969,14.623 83.369,14.852 82.337,15.825 82.55,17.23 81.308,16.546 
		80.037,17.186 80.301,15.79 79.303,14.781 80.714,14.6 	"/>
	<polygon fill="#FFFFFF" points="81.079,0.764 81.691,2.055 83.104,2.294 82.056,3.275 82.272,4.688 81.021,4.003 79.736,4.643 
		80.004,3.238 78.996,2.218 80.422,2.032 	"/>
	<polygon fill="#FFFFFF" points="85.165,1.238 85.772,2.52 87.173,2.752 86.136,3.723 86.35,5.129 85.106,4.443 83.835,5.086 
		84.104,3.687 83.104,2.678 84.511,2.499 	"/>
	<polygon fill="#FFFFFF" points="68.539,2.726 69.141,3.995 70.523,4.224 69.505,5.19 69.72,6.576 68.482,5.903 67.23,6.53 
		67.489,5.152 66.503,4.153 67.9,3.973 	"/>
	<polygon fill="#FFFFFF" points="64.738,4.651 65.342,5.919 66.724,6.149 65.706,7.115 65.921,8.5 64.683,7.828 63.43,8.454 
		63.69,7.076 62.704,6.078 64.099,5.897 	"/>
	<polygon fill="#FFFFFF" points="72.564,1.726 73.16,2.984 74.549,3.218 73.525,4.182 73.737,5.564 72.508,4.893 71.253,5.521 
		71.514,4.143 70.523,3.145 71.921,2.965 	"/>
	<polygon fill="#FFFFFF" points="76.843,1.237 77.451,2.522 78.851,2.752 77.818,3.725 78.03,5.13 76.788,4.444 75.517,5.085 
		75.782,3.688 74.783,2.679 76.194,2.499 	"/>
	<polygon fill="#FFFFFF" points="99.467,7.566 100.087,8.823 101.475,9.028 100.472,10.011 100.71,11.396 99.467,10.743 
		98.218,11.396 98.455,10.011 97.447,9.028 98.842,8.823 	"/>
	<polygon fill="#FFFFFF" points="89.431,1.729 90.05,2.987 91.44,3.19 90.436,4.175 90.673,5.56 89.431,4.907 88.183,5.56 
		88.418,4.175 87.412,3.19 88.806,2.987 	"/>
	<polygon fill="#FFFFFF" points="93.455,2.736 94.075,3.994 95.463,4.197 94.46,5.181 94.698,6.565 93.455,5.914 92.208,6.565 
		92.443,5.181 91.436,4.197 92.831,3.994 	"/>
	<polygon fill="#FFFFFF" points="97.454,4.651 98.073,5.908 99.462,6.111 98.458,7.096 98.696,8.48 97.454,7.828 96.205,8.48 
		96.441,7.096 95.434,6.111 96.828,5.908 	"/>
	<path fill="#213B79" d="M111.174,34.355c0,0-4.551-3.449-5.804-7.227l-9.907,1.456c0.017-1.059-0.153-2.475-0.606-3.776
		l6.144-1.548l-19.93-5.522l-20.12,4.883l6.253,1.787c0,0-0.435,1.154-0.7,2.81l-8.193-1.911c-1.758,4.235-6.593,7.369-6.593,7.369
		l-6.953,42.875l30.607,2.833c0,0,1.28,2.797,4.316,2.797c3.035,0,4.723-2.716,4.723-2.716l30.916-3.515L111.174,34.355z"/>
	<path fill="#FFFFFF" d="M66.361,28.566l-7.841-2.032c-1.72,4.142-5.706,6.407-5.706,6.407l-6.798,41.458l29.461,2.772
		c0,0,1.251,2.734,4.219,2.734s4.619-2.656,4.619-2.656l29.765-3.438l-4.064-39.228c0,0-3.776-2.715-5-6.407l-9.55,1.484
		c0,0-0.016,2.526-0.609,3.181c-0.596,0.655-4.402,3.88-13.517,3.88s-13.745-3.478-13.745-3.478S66.16,32.334,66.361,28.566"/>
	<path fill="#213B79" d="M104.353,27.936l3.645,41.368c0,0-9.891-1.487-27.097,3.609l0.77-36.661l-1.299-0.035l-0.691,36.649
		c-11.728-4.472-27.427-3.102-27.427-3.102l7.007-43.548l-0.692-0.284l-0.423,0.371c0,0-6.941,42.616-7.144,43.622
		c-0.202,1.007,0.927,0.927,0.927,0.927c16.437-1.532,26.79,2.941,27.274,3.101c0.484,0.162,1.169,0.283,1.169,0.283
		c14.584-5.318,26.792-4.07,27.757-3.827c0.966,0.24,0.987-0.757,0.987-0.757l-3.796-41.494l-0.282-0.487L104.353,27.936z"/>
	<polygon fill="#FFFFFF" points="81.136,18.395 63.259,22.658 81.144,26.989 98.833,23.197 	"/>
	<path fill="#FFFFFF" d="M94.015,25.106c0,0,1.28,4.362,0.133,7.355c0,0-4.532,3.523-12.92,3.523s-13.226-3.383-13.226-3.383
		s-2.014-3.02,0.168-7.97l12.834,3.411L94.015,25.106z"/>
	<path fill="#213B79" d="M80.712,23.276c0.331-0.153,1.017-0.636,0.625-1.194c-0.392-0.558-1.289-0.229-1.289-0.229l-7.252,4.118
		l-0.258,2.608c0,0-3.101,0.05-3.002,2.809c0.102,2.758,0.971,1.455-0.217,3.811c-1.187,2.357-1.721,4.213,0,4.012
		c1.721-0.2,2.172-0.251,2.472-0.702c0.303-0.452,0.853-0.201,1.154,0.05c0.303,0.251,1.355-0.101,1.606,0.05
		c0.251,0.15,1.304-0.101,1.404-1.104s-0.452-1.756-0.201-3.06c0.251-1.304,1.504-2.207,1.355-3.16
		c-0.15-0.954-0.752-2.459-3.109-2.809l0.05-1.604C74.048,26.874,80.381,23.429,80.712,23.276"/>
	<path fill="#FFFFFF" d="M72.008,29.346c-1.002,0.261-1.826,0.869-1.773,1.966c0.023,0.483,0.288,0.91,0.343,1.387
		c0.088,0.779-0.289,1.451-0.551,2.156c-0.123,0.328-0.233,0.666-0.299,1.01c-0.035,0.183-0.059,0.368-0.061,0.554
		c-0.001,0.131,0.075,0.359,0.044,0.475c0.141-0.501,0.385-1.356,0.863-1.634c0.06,0.202-0.109,1.864-0.184,1.831l0.682,0.312
		c0,0,0.225,0.569,0.113,0.795c0,0,0.595-0.142,0.595-0.739c0-0.596,0.284-1.107,0.74-1.107c0.454,0,0.569,0.653,0.512,0.966
		c-0.058,0.312,0.057,0.539,0.198,0.539c0.143,0,0.284-1.164,0.284-1.164s0.483,1.107,0.712,1.221c0,0,0.37,0.171,0.311-0.711
		c-0.025-0.416-0.082-0.898,0.014-1.31c0.139,0.215,0.255,1.078,0.498,1.165c0.272,0.097,0.239-0.475,0.224-0.631
		c-0.069-0.65-0.399-1.2-0.338-1.875c0.062-0.665,0.423-1.232,0.824-1.744c0.362-0.461,0.852-1.029,0.595-1.656
		c-0.351-0.869-0.741-1.414-1.655-1.745C74.024,29.161,72.938,29.103,72.008,29.346"/>
	<path fill="#FFFFFF" d="M123.135,54.985c0.651,0,1.287-1.609,0.143-2.381c-19.684-9.625-75.659-4.609-83.285-2.242
		c2.716,1.141,3.736,1.616,5.74,2.571c5.076-3.375,11.222-4.898,18.541,1.899h4.324l-2.559-2.739l4.64,2.739h3.847
		c-0.303-1.273-1.174-1.965-1.471-3.238c1.14,1.307,2.572,1.925,3.71,3.238h7.104l-0.905-3.034l2.807,3.034h1.901l-0.587-3.486
		c0,0,2.578,3.486,3.1,3.486h3.163c-0.392-0.783-0.65-2.813-1.047-3.603c0.793,0.843,1.863,2.794,2.653,3.626h4.961l-0.905-2.921
		c0,0,3.982,2.422,3.982,2.921h8.692c-0.153-0.919-0.544-1.661-0.692-2.571c0.576,0.928,1.378,1.592,1.966,2.496
		c0.02,0.03,0.039,0.062,0.059,0.094h3.326l-0.181-1.717c0,0,0.838,1.47,1.831,1.674C118.989,55.034,120.629,54.985,123.135,54.985"
		/>
	<path fill="#213B79" d="M120.986,55.459c-1.428,0-2.39-0.027-3.085-0.171c-0.413-0.083-0.791-0.325-1.109-0.607l0.016,0.143
		c0.015,0.132-0.028,0.265-0.117,0.359c-0.09,0.101-0.217,0.156-0.349,0.156h-3.324c-0.163,0-0.311-0.083-0.398-0.223l-0.054-0.086
		c-0.154-0.237-0.325-0.458-0.506-0.676c0.032,0.136,0.062,0.274,0.087,0.42c0.021,0.136-0.016,0.273-0.104,0.379
		c-0.089,0.104-0.22,0.165-0.356,0.165h-8.691c-0.218,0-0.402-0.15-0.453-0.351c-0.22-0.302-1.419-1.148-2.711-1.973l0.532,1.72
		c0.044,0.143,0.018,0.297-0.069,0.416c-0.089,0.121-0.227,0.191-0.377,0.191h-4.961c-0.128,0-0.251-0.054-0.339-0.143
		c-0.362-0.381-0.768-0.965-1.171-1.565c0.103,0.416,0.21,0.786,0.32,1.008c0.073,0.143,0.064,0.318-0.021,0.455
		c-0.086,0.14-0.236,0.223-0.398,0.223h-3.163c-0.188,0-0.593,0-2.322-2.171l0.272,1.625c0.023,0.136-0.016,0.275-0.103,0.38
		c-0.088,0.105-0.221,0.165-0.357,0.165h-1.901c-0.131,0-0.257-0.054-0.344-0.149l-1.438-1.556L84.32,54.7
		c0.043,0.142,0.016,0.295-0.072,0.412c-0.09,0.118-0.227,0.187-0.377,0.187h-7.104c-0.136,0-0.265-0.059-0.351-0.162
		c-0.539-0.62-1.147-1.076-1.789-1.557c-0.047-0.037-0.096-0.072-0.143-0.107c0.203,0.37,0.387,0.77,0.502,1.252
		c0.032,0.141,0,0.287-0.088,0.399c-0.089,0.111-0.225,0.178-0.368,0.178h-3.849c-0.083,0-0.165-0.022-0.237-0.065l-1.846-1.089
		l0.344,0.368c0.126,0.138,0.162,0.335,0.087,0.506c-0.075,0.171-0.244,0.281-0.431,0.281h-4.322c-0.118,0-0.231-0.044-0.318-0.125
		c-3.361-3.121-6.622-4.64-9.964-4.64c-2.56,0-5.176,0.912-7.998,2.788c-0.138,0.09-0.311,0.103-0.46,0.032
		c-1.923-0.914-2.971-1.407-5.721-2.561c-0.183-0.076-0.297-0.258-0.287-0.453c0.01-0.198,0.142-0.365,0.328-0.424
		c4.432-1.374,23.804-3.454,42.905-3.454c13.241,0,31.051,0.993,40.724,5.723c0.02,0.01,0.037,0.021,0.057,0.032
		c0.861,0.583,0.94,1.533,0.746,2.171c-0.195,0.637-0.658,1.067-1.152,1.067L120.986,55.459z M116.162,52.688
		c0.164,0,0.32,0.087,0.406,0.236c0.19,0.334,0.881,1.318,1.52,1.448c0.618,0.126,1.53,0.15,2.897,0.15l2.151-0.006
		c0.051-0.017,0.237-0.218,0.294-0.564c0.035-0.225,0.03-0.645-0.388-0.944c-9.519-4.639-27.155-5.612-40.281-5.612
		c-17.502,0-35.187,1.74-41.306,3.075c1.781,0.762,2.773,1.225,4.244,1.925c2.897-1.883,5.613-2.8,8.295-2.8
		c3.545,0,6.969,1.559,10.467,4.765h3.061l-1.823-1.951c-0.158-0.17-0.169-0.431-0.023-0.613c0.146-0.181,0.403-0.229,0.602-0.111
		l4.529,2.674h3.071c-0.138-0.316-0.309-0.606-0.489-0.906c-0.307-0.516-0.624-1.047-0.789-1.757
		c-0.049-0.209,0.051-0.425,0.243-0.522c0.191-0.098,0.425-0.053,0.565,0.109c0.534,0.614,1.137,1.066,1.777,1.543
		c0.603,0.452,1.225,0.918,1.791,1.534h6.266l-0.725-2.432c-0.062-0.208,0.027-0.431,0.217-0.54
		c0.187-0.106,0.428-0.071,0.574,0.089l2.667,2.884h1.142l-0.497-2.941c-0.035-0.213,0.08-0.424,0.279-0.509
		c0.198-0.083,0.431-0.022,0.558,0.151c1.05,1.421,2.392,3.049,2.794,3.295h2.42c-0.105-0.361-0.203-0.781-0.304-1.214
		c-0.155-0.67-0.316-1.362-0.491-1.71c-0.104-0.207-0.04-0.46,0.149-0.594c0.19-0.132,0.451-0.106,0.609,0.064
		c0.421,0.447,0.902,1.167,1.367,1.864c0.398,0.595,0.809,1.211,1.155,1.616h4.12l-0.719-2.316
		c-0.058-0.186,0.006-0.388,0.158-0.507c0.153-0.119,0.364-0.132,0.532-0.03c2.666,1.621,3.642,2.422,4.001,2.854h7.849
		c-0.062-0.225-0.134-0.446-0.209-0.674c-0.138-0.424-0.28-0.862-0.361-1.355c-0.037-0.221,0.089-0.435,0.297-0.513
		c0.21-0.079,0.445,0.002,0.561,0.191c0.277,0.447,0.615,0.832,0.971,1.238c0.31,0.351,0.629,0.718,0.911,1.13h2.552l-0.127-1.202
		c-0.022-0.22,0.111-0.425,0.322-0.492C116.066,52.695,116.114,52.688,116.162,52.688"/>
</g>
<g>
	<path fill="#FFFFFF" d="M189.747,105.267c-1.804,0-3.34-0.635-4.596-1.899c-1.255-1.26-1.887-2.787-1.887-4.589V77.686h4.014
		v21.048c0,0.652,0.229,1.207,0.693,1.667c0.461,0.457,1.017,0.684,1.669,0.684c0.649,0,1.202-0.227,1.659-0.684
		c0.456-0.459,0.682-1.015,0.682-1.667V77.686h4.275V98.78c0,1.828-0.639,3.366-1.911,4.613
		C193.072,104.64,191.543,105.267,189.747,105.267"/>
	<polygon fill="#FFFFFF" points="203.735,77.664 209.174,96.009 209.174,77.664 213.271,77.664 213.271,104.96 208.871,104.96 
		203.231,87.484 203.231,104.96 199.133,104.96 199.133,77.664 	"/>
	<rect x="216.173" y="77.688" fill="#FFFFFF" width="4.098" height="27.272"/>
	<polygon fill="#FFFFFF" points="227.793,104.96 222.934,77.688 227.233,77.688 230.643,98.946 234.077,77.688 238.377,77.688 
		233.43,104.96 	"/>
	<polygon fill="#FFFFFF" points="241.036,104.96 241.036,77.666 252.706,77.666 252.706,81.8 245.138,81.8 245.138,89.245 
		250.668,89.245 250.668,93.381 245.138,93.381 245.138,100.823 252.706,100.823 252.706,104.96 	"/>
	<path fill="#FFFFFF" d="M261.223,77.686c2.282,0,3.964,0.635,5.033,1.894c0.937,1.103,1.41,2.641,1.41,4.613v3.965
		c0,1.931-0.731,3.563-2.192,4.894l3.034,11.909h-4.433l-2.485-10.274h-0.368h-2.365v10.274h-4.097V77.686H261.223z M263.675,84.259
		c0-1.577-0.781-2.373-2.345-2.373h-2.471v8.734h2.471c0.653,0,1.205-0.236,1.663-0.701c0.453-0.466,0.682-1.022,0.682-1.676V84.259
		z"/>
	<path fill="#FFFFFF" d="M283.424,98.17c0.029,1.901-0.462,3.522-1.477,4.872c-0.663,0.918-1.601,1.564-2.817,1.937
		c-0.65,0.204-1.409,0.307-2.276,0.307c-1.606,0-2.935-0.399-3.99-1.195c-0.884-0.657-1.579-1.543-2.094-2.665
		c-0.51-1.124-0.81-2.418-0.898-3.868l3.903-0.283c0.172,1.592,0.592,2.741,1.26,3.458c0.492,0.539,1.052,0.794,1.691,0.768
		c0.897-0.032,1.612-0.474,2.146-1.334c0.273-0.419,0.411-1.022,0.411-1.806c0-1.133-0.51-2.26-1.536-3.375
		c-0.814-0.773-2.026-1.922-3.643-3.465c-1.363-1.322-2.322-2.506-2.886-3.553c-0.608-1.173-0.912-2.452-0.912-3.832
		c0-2.485,0.83-4.364,2.493-5.642c1.028-0.77,2.3-1.156,3.818-1.156c1.46,0,2.71,0.326,3.753,0.982
		c0.809,0.508,1.461,1.218,1.961,2.133c0.499,0.912,0.8,1.966,0.901,3.158l-3.923,0.717c-0.12-1.118-0.437-1.991-0.957-2.614
		c-0.376-0.45-0.918-0.676-1.626-0.676c-0.753,0-1.322,0.334-1.713,1.002c-0.321,0.539-0.475,1.204-0.475,2.002
		c0,1.249,0.533,2.516,1.603,3.808c0.408,0.496,1.012,1.075,1.822,1.741c0.953,0.8,1.583,1.358,1.887,1.678
		c1.014,1.015,1.793,2.017,2.341,3.001c0.262,0.466,0.472,0.893,0.631,1.283C283.206,96.533,283.41,97.399,283.424,98.17"/>
	<rect x="286.065" y="77.688" fill="#FFFFFF" width="4.099" height="27.272"/>
	<polygon fill="#FFFFFF" points="297.056,81.824 292.696,81.824 292.696,77.688 305.492,77.688 305.492,81.824 301.156,81.824 
		301.156,104.96 297.056,104.96 	"/>
	<path fill="#FFFFFF" d="M309.557,98.688l-0.995,6.271h-4.268l4.622-27.274h5.636l4.555,27.274h-4.31l-0.959-6.271H309.557z
		 M311.708,83.937l-1.515,10.748h3.033L311.708,83.937z"/>
	<path fill="#FFFFFF" d="M328.251,77.686c2.285,0,3.963,0.635,5.032,1.894c0.94,1.103,1.41,2.641,1.41,4.613v3.965
		c0,1.931-0.731,3.563-2.191,4.894l3.035,11.909h-4.434l-2.484-10.274h-0.369h-2.366v10.274h-4.097V77.686H328.251z M330.699,84.259
		c0-1.577-0.779-2.373-2.342-2.373h-2.472v8.734h2.472c0.653,0,1.206-0.236,1.662-0.701c0.452-0.466,0.679-1.022,0.679-1.676
		L330.699,84.259L330.699,84.259z"/>
	<rect x="338.286" y="77.688" fill="#FFFFFF" width="4.098" height="27.272"/>
	<path fill="#FFFFFF" d="M350.31,98.688l-0.995,6.271h-4.268l4.62-27.274h5.638l4.554,27.274h-4.311l-0.957-6.271H350.31z
		 M352.463,83.937l-1.519,10.748h3.035L352.463,83.937z"/>
	<path fill="#FFFFFF" d="M199.449,9.366v4.46c0,5.488-2.502,8.481-7.594,8.481h-2.408v12.894h-5.092V0.885h7.501
		C196.947,0.885,199.449,3.874,199.449,9.366 M189.447,5.788v11.615h2.408c1.62,0,2.503-0.785,2.503-3.233V9.023
		c0-2.452-0.883-3.235-2.503-3.235H189.447z"/>
	<polygon fill="#FFFFFF" points="203.429,0.885 208.524,0.885 208.524,30.294 216.901,30.294 216.901,35.201 203.429,35.201 	"/>
	<path fill="#FFFFFF" d="M237.224,35.201h-5.139l-0.879-6.228h-6.254l-0.877,6.228h-4.679l5.188-34.315h7.455L237.224,35.201z
		 M225.603,24.315h4.909l-2.454-17.351L225.603,24.315z"/>
	<polygon fill="#FFFFFF" points="245.74,10.344 245.74,35.201 241.154,35.201 241.154,0.885 247.546,0.885 252.778,21.425 
		252.778,0.885 257.316,0.885 257.316,35.201 252.085,35.201 	"/>
	<polygon fill="#FFFFFF" points="188.544,53.561 195.521,53.561 195.521,58.452 188.544,58.452 188.544,68.488 197.323,68.488 
		197.323,73.38 183.466,73.38 183.466,39.122 197.323,39.122 197.323,44.018 188.544,44.018 	"/>
	<polygon fill="#FFFFFF" points="218.486,39.122 213.173,55.766 218.857,73.38 213.495,73.38 209.339,59.826 205.133,73.38 
		200.377,73.38 206.059,55.766 200.747,39.122 206.011,39.122 209.847,51.75 213.773,39.122 	"/>
	<path fill="#FFFFFF" d="M236.505,60.608v4.553c0,5.479-2.585,8.612-7.576,8.612c-4.989,0-7.575-3.133-7.575-8.612V47.347
		c0-5.482,2.586-8.614,7.575-8.614c4.991,0,7.576,3.132,7.576,8.614v3.327H231.7v-3.671c0-2.448-1.015-3.377-2.63-3.377
		c-1.62,0-2.634,0.929-2.634,3.377v18.498c0,2.447,1.014,3.327,2.634,3.327c1.616,0,2.63-0.88,2.63-3.327v-4.894
		C231.7,60.608,236.505,60.608,236.505,60.608z"/>
	<polygon fill="#FFFFFF" points="245.746,53.561 252.725,53.561 252.725,58.452 245.746,58.452 245.746,68.488 254.525,68.488 
		254.525,73.38 240.666,73.38 240.666,39.122 254.525,39.122 254.525,44.018 245.746,44.018 	"/>
	<polygon fill="#FFFFFF" points="258.734,39.122 263.814,39.122 263.814,68.488 272.178,68.488 272.178,73.38 258.734,73.38 	"/>
	<polygon fill="#FFFFFF" points="280.54,53.561 287.517,53.561 287.517,58.452 280.54,58.452 280.54,68.488 289.318,68.488 
		289.318,73.38 275.46,73.38 275.46,39.122 289.318,39.122 289.318,44.018 280.54,44.018 	"/>
	<polygon fill="#FFFFFF" points="298.051,48.571 298.051,73.38 293.48,73.38 293.48,39.122 299.856,39.122 305.074,59.63 
		305.074,39.122 309.604,39.122 309.604,73.38 304.381,73.38 	"/>
	<path fill="#FFFFFF" d="M329.055,60.608v4.553c0,5.479-2.59,8.612-7.573,8.612c-4.993,0-7.58-3.133-7.58-8.612V47.347
		c0-5.482,2.587-8.614,7.58-8.614c4.983,0,7.573,3.132,7.573,8.614v3.327h-4.803v-3.671c0-2.448-1.014-3.377-2.635-3.377
		c-1.617,0-2.63,0.929-2.63,3.377v18.498c0,2.447,1.014,3.327,2.63,3.327c1.621,0,2.635-0.88,2.635-3.327v-4.894
		C324.252,60.608,329.055,60.608,329.055,60.608z"/>
	<rect x="333.217" y="39.122" fill="#FFFFFF" width="5.082" height="34.257"/>
	<path fill="#FFFFFF" d="M359.505,73.38h-5.128l-0.877-6.213h-6.239l-0.878,6.213h-4.664l5.175-34.257h7.435L359.505,73.38z
		 M347.909,62.518h4.897l-2.448-17.326L347.909,62.518z"/>
</g>
</svg>
