<?xml version="1.0" encoding="utf-8"?>
<!-- Generator: Adobe Illustrator 17.0.0, SVG Export Plug-In . SVG Version: 6.00 Build 0)  -->
<!DOCTYPE svg PUBLIC "-//W3C//DTD SVG 1.1//EN" "http://www.w3.org/Graphics/SVG/1.1/DTD/svg11.dtd">
<svg version="1.1" id="Capa_1" xmlns="http://www.w3.org/2000/svg" xmlns:xlink="http://www.w3.org/1999/xlink" x="0px" y="0px"
	 width="484.639px" height="595.279px" viewBox="55.32 123.305 484.639 595.279"
	 enable-background="new 55.32 123.305 484.639 595.279" xml:space="preserve">
<g>
	<path fill="#FFFFFF" d="M175.352,506.29c0-9.886-6.86-15.781-18.963-15.781c-4.942,0-8.29,0.488-10.04,0.954v31.718
		c2.073,0.467,4.621,0.622,8.134,0.622C167.383,523.803,175.352,517.286,175.352,506.29z"/>
	<path fill="#FFFFFF" d="M250.277,490.84c-5.42,0-8.923,0.468-10.995,0.953v70.247c2.073,0.486,5.42,0.486,8.446,0.486
		c21.988,0.156,36.329-11.948,36.329-37.594C284.213,502.631,271.145,490.84,250.277,490.84z"/>
	<path fill="#FFFFFF" d="M389.484,123.305H150.395c-34.929,0-63.357,28.448-63.357,63.357v234.282h-6.188
		c-14.097,0-25.53,11.422-25.53,25.532v154.832c0,14.109,11.432,25.529,25.53,25.529h6.188v28.391
		c0,34.947,28.428,63.357,63.357,63.357h326.226c34.906,0,63.338-28.411,63.338-63.357V273.253L389.484,123.305z M122.297,474.417
		c7.482-1.264,17.999-2.217,32.816-2.217c14.974,0,25.646,2.858,32.817,8.599c6.85,5.41,11.472,14.341,11.472,24.85
		c0,10.507-3.503,19.44-9.876,25.491c-8.29,7.803-20.548,11.306-34.889,11.306c-3.192,0-6.052-0.158-8.29-0.468v38.393h-24.051
		V474.417z M476.622,679.783H150.395c-13.524,0-24.538-11.013-24.538-24.556v-28.391h304.11c14.1,0,25.532-11.421,25.532-25.529
		V446.475c0-14.11-11.432-25.532-25.532-25.532h-304.11V186.662c0-13.505,11.014-24.518,24.538-24.518l224.573-0.235v83.01
		c0,24.246,19.673,43.938,43.938,43.938l81.317-0.233l0.915,366.602C501.138,668.77,490.145,679.783,476.622,679.783z
		 M214.911,579.884V474.417c8.92-1.42,20.547-2.217,32.817-2.217c20.392,0,33.615,3.658,43.976,11.46
		c11.15,8.289,18.154,21.503,18.154,40.473c0,20.548-7.482,34.735-17.845,43.49c-11.306,9.398-28.516,13.855-49.541,13.855
		C229.883,581.478,220.963,580.681,214.911,579.884z M388.785,517.441v19.75h-38.559v43.18h-24.372V472.997h65.635v19.905h-41.262
		v24.539H388.785z"/>
</g>
</svg>
